<svg width="500" height="293" viewBox="0 0 500 293" fill="none" xmlns="http://www.w3.org/2000/svg">
<path d="M473.332 119.899L469.984 123.946V208.849L464.067 189.918V189.91L411.711 124.299L411.703 124.302L410.09 141.134V210.579L407.445 216.387V216.401H414.004L416.846 152.394L416.737 151.766L424.693 161.768L425.512 153.105L469.984 208.849L469.213 217.767L477.491 215.362L473.34 119.899H473.332Z" fill="white"/>
<path d="M159.585 200.577C159.585 200.577 158.707 211.317 150.484 211.317H131.626L127.773 207.491H124.52C124.11 207.354 123.782 207.218 123.591 207.081C123.045 206.753 122.717 206.316 122.553 205.687C122.361 204.785 122.252 203.501 122.252 201.834V181.91H148.106L149.992 173.957L145.075 177.743H131.828L127.775 173.957H122.252V150.208H141.738C146.849 150.208 148.953 150.809 149.855 151.328C150.484 151.684 150.921 152.121 151.167 152.722C151.386 153.214 151.632 154.143 151.632 155.892C151.632 157.368 151.331 159.855 150.702 163.217L150.402 164.829H157.48L162.973 142.337H162.968L157.229 146.264H116.029L102.301 142.339V148.951L103.531 149.06C105.225 149.224 106.592 149.388 107.576 149.579C108.368 149.716 109.024 150.044 109.571 150.536C109.598 150.563 110.227 151.328 110.227 155.783V157.587C112.386 158.407 115.775 160.074 115.775 162.096V205.223C115.775 205.223 115.622 210.798 110.2 210.798C105.909 210.798 102.301 208.994 102.301 208.994V215.362H160.295L163.602 198.035H156.524L159.585 200.577Z" fill="white"/>
<path d="M102.301 208.748V208.994L102.329 208.748H102.301Z" fill="#35354B"/>
<path d="M264.471 97.0238H277.781V90.5739L276.524 90.4646C271.878 90.082 271.085 89.3714 271.003 89.2894C270.456 88.7428 270.156 88.1689 270.046 87.5403C269.91 86.7204 269.828 85.5999 269.828 84.2061V27.8792C269.828 24.5176 270.593 23.5611 270.948 23.3151C271.058 23.2058 271.96 22.7139 276.551 22.2492L277.781 22.1399V15.7174H277.762L264.753 22.006L249.836 15.7174H249.822V22.1399L251.052 22.2492C255.534 22.6865 256.409 23.1511 256.546 23.2331C256.983 23.5611 257.721 24.5723 257.721 27.8792V30.3936C260.016 31.0495 263.843 32.7986 263.843 35.0232V47.6032C259.981 43.4381 257.721 41.8174 257.721 41.8174C256.3 40.7242 254.687 39.795 252.938 39.0571L251.735 42.0634C251.735 42.0634 248.101 40.8609 243.536 40.8609C239 40.8609 230.858 43.8289 227.718 52.6783C225.217 59.7212 225.04 65.2692 225.217 70.0219C225.521 78.0514 228.398 86.9117 237.114 93.1976L231.457 93.9628C233.37 95.302 235.502 96.3679 237.797 97.1331C240.284 97.9803 242.717 98.3903 245.04 98.3903C247.882 98.3903 250.916 98.2263 254.004 97.9257C259.661 97.3244 263.187 97.0238 264.471 97.0238ZM244.411 91.8038L243.837 90.164C240.202 89.6447 237.387 87.4857 235.283 83.5775C233.014 79.5327 231.867 73.9847 231.867 67.1249C231.867 57.2315 234.026 50.481 238.262 46.9828C239.738 45.7803 241.405 45.179 243.373 45.179C245.477 45.179 247.39 45.507 249.057 46.1082C250.752 46.7368 252.255 47.584 253.539 48.6499C256.354 50.9456 257.721 53.542 257.721 56.6302V60.5384C260.344 63.2714 263.843 67.5349 263.843 70.7324V87.2943C263.843 87.4037 263.788 93.2796 251.544 93.2796C244.876 93.2796 244.411 91.8038 244.411 91.8038Z" fill="white"/>
<path d="M70.1011 44.6871C73.7087 39.5217 75.5398 33.8644 75.5398 27.8519C75.5398 19.8442 72.6975 13.285 67.1222 8.36567C65.3184 6.80787 63.214 5.44137 60.809 4.32085L59.8798 8.83028C39.8934 -1.01941 18.2318 10.0383 18.2318 10.0383L0 1.69718V9.51352L1.22984 9.59551C3.49822 9.78682 5.32933 10.0601 6.64116 10.4154C7.78901 10.716 8.71823 11.2353 9.45614 11.9732C9.67478 12.2192 10.4127 13.3397 10.4127 18.3137C10.4127 18.3137 17.7781 23.0691 17.7781 27.9065V87.431C17.7781 87.431 17.871 94.7035 0 89.2348V96.8051H40.3662V89.2074L35.8841 88.7155C33.3698 88.4422 31.2927 88.1689 29.7349 87.8956C28.4231 87.677 27.4665 87.2943 26.8653 86.7751C26.2913 86.3105 25.9361 85.5999 25.7447 84.616C25.5261 83.4135 25.4168 81.6644 25.4168 79.3687V20.7461C25.4168 19.1883 25.5534 17.7125 25.8541 16.3187C26.8106 11.9186 31.8393 9.6775 40.8035 9.6775C49.2211 9.6775 54.6871 12.5471 57.2834 18.4231C59.2512 19.0243 66.8762 21.5387 66.8762 26.0208C66.8762 35.4086 61.6289 56.7669 37.3053 50.0164L33.8617 56.9855L51.8147 67.1768L94.8347 119.899H98.3875L53.9218 56.8215C60.9183 54.2252 66.3569 50.1257 70.1011 44.6871Z" fill="white"/>
<path d="M187.729 97.3791C190.571 97.1604 193.168 97.0238 195.381 97.0238H208.144V90.5466L206.887 90.4373C205.329 90.3006 204.099 90.1093 203.17 89.918C202.487 89.754 201.913 89.4261 201.421 88.9068C201.366 88.8248 200.793 88.0049 200.793 83.4408V54.6351C200.793 52.1481 200.355 49.8524 199.481 47.8027C198.06 44.4138 195.518 41.8994 191.883 40.2323L190.456 43.9683C190.456 43.9683 186.644 41.5469 177.286 41.5469C164.714 41.5469 161.293 47.0047 161.293 49.9891C161.293 52.5362 161.738 54.2717 161.738 54.2717L155.234 50.6997C155.261 52.2301 155.616 53.5693 156.327 54.5532C158.158 57.2861 161.11 59.0353 165.1 59.6912L165.592 59.7732L170.374 56.9035L169.582 55.701C168.598 54.2252 168.079 52.9407 168.079 51.9842C168.079 50.9729 168.27 50.1257 168.68 49.3605C170.21 46.7095 173.053 45.425 177.398 45.425C187.292 45.425 188.685 49.8251 188.767 53.296C190.899 54.1432 194.43 55.5917 194.785 57.1495V63.5611C194.785 63.5611 179.087 63.4873 170.574 67.8683C163.17 71.6781 159.47 75.5152 159.47 81.5004C159.47 87.4857 162.613 91.6945 165.592 93.1976L159.388 93.9902C160.918 95.1653 162.749 96.0946 164.881 96.8598C167.45 97.7617 170.484 98.2263 173.818 98.2263C177.043 98.2263 181.716 97.953 187.729 97.3791ZM166.63 81.7464C166.63 73.5474 173.873 69.038 188.767 67.8901V72.6455L194.714 73.3288V87.2943C194.714 87.2943 194.764 93.2714 182.427 93.2714C175.758 93.2714 173.867 91.9951 173.867 91.9951L171.602 89.3441C168.213 87.9776 166.63 85.5179 166.63 81.7464Z" fill="white"/>
<path d="M331.976 51.8202V87.1659C331.976 87.1659 331.839 91.2654 326.1 91.2654C320.361 91.2654 318.147 90.164 318.147 90.164V97.0238H354.55V89.3987L353.184 89.3714C348.128 89.3168 344.63 89.0981 342.771 88.7702C341.733 88.5788 340.94 88.3056 340.366 87.9776C339.902 87.7043 339.464 87.2124 339.109 86.5291C338.945 86.2012 338.562 85.026 338.562 80.8992V39.5491H357.721V30.3662L354.023 34.575H345.928L342.512 30.3662H338.562V10.6341L331.921 22.0033V25.6409C331.921 25.6409 332.006 37.625 316.125 32.1427V39.5491H325.198V46.8461L331.976 51.8202Z" fill="white"/>
<path d="M75.9279 130.011C73.0582 127.469 69.806 125.392 66.1711 123.752L64.504 128.316C40.891 116.756 18.3712 128.316 18.3712 128.316L0.0601349 119.981V127.879L1.31731 127.989C3.53103 128.18 5.3348 128.398 6.67396 128.644C7.79449 128.836 8.7237 129.273 9.48894 129.984C9.59826 130.093 10.4455 131.022 10.5001 136.597C11.32 137.144 17.7699 141.599 17.7699 146.136V205.66C17.7699 205.66 17.8792 212.902 0.0874648 207.491H0.0601349V215.062L18.9997 215.007C19.929 215.007 21.3501 215.089 23.2632 215.28L30.8609 216.073C33.9765 216.401 37.5294 216.565 41.3829 216.565C56.4417 216.565 68.4122 211.673 76.9664 201.998C85.1927 192.651 89.3742 179.997 89.3742 164.392C89.3742 149.333 84.8647 137.745 75.9279 130.011ZM45.1544 210.579L42.7767 207.027C40.6997 207.027 38.5406 206.808 36.2722 206.425C31.3528 205.66 25.4769 204.02 25.4769 200.604V133.509C25.4769 132.553 25.8595 131.815 26.6248 131.213C29.4397 129.082 34.1405 127.989 40.645 127.989C50.9484 127.989 58.8467 130.53 64.1487 135.532C66.9637 138.128 69.1774 141.653 70.7352 145.944C71.0905 146.873 71.3911 147.885 71.6371 148.951C74.78 150.29 80.5739 153.487 80.5739 158.789C80.5739 166.059 83.6622 210.579 45.1544 210.579Z" fill="white"/>
<path d="M0.0601349 119.954V119.981L0.142125 119.954H0.0601349Z" fill="#35354B"/>
<path d="M189.492 161.612C191.47 166.084 209.21 210.519 209.21 210.519L210.142 197.652L192.296 151.984C191.886 150.946 191.722 150.399 191.64 150.153L191.749 150.071C192.077 149.825 193.307 149.224 197.871 149.06L199.183 149.033V142.337H199.177L185.403 146.742L173.386 142.337V148.896L174.561 149.06C176.338 149.279 177.704 149.88 178.661 150.836C178.934 151.082 179.59 151.902 180.601 154.444L181.886 157.587C182.514 157.559 187.576 157.349 189.492 161.612Z" fill="white"/>
<path d="M244.004 142.391L234.419 146.742L220.421 142.391H220.394V149.115H221.76C224.602 149.115 225.914 149.388 226.543 149.634C226.898 149.743 227.144 149.907 227.281 150.126C227.499 150.454 227.499 150.645 227.499 150.7C227.499 150.754 227.499 151.246 226.843 153.05L225.313 157.587C225.313 157.587 229.795 159.008 228.866 162.424L209.213 210.519L206.729 218.122H211.785L238.459 152.148C238.732 151.465 239.142 150.809 239.688 150.153C239.825 149.989 240.454 149.415 242.831 149.087L244.034 148.951V142.391H244.004Z" fill="white"/>
<path d="M298.639 168.409H305.608L312.359 141.326L302.473 150.823C302.473 150.823 293.681 144.687 281.285 144.687C272.867 144.687 262.495 149.164 257.644 157.641C253.362 165.122 251.826 172.506 251.826 181.61C251.826 191.845 257.89 204.567 267.893 209.104L263.055 212.055C268.467 215.062 274.835 216.565 282.104 216.565C288.363 216.565 293.774 215.471 298.256 213.34C302.766 211.153 306.319 208.174 308.806 204.485L309.325 203.665L305.526 198.554L304.816 204.376C304.816 204.376 298.092 211.071 284.537 211.071C279.617 211.071 275.873 206.234 275.873 206.234C271.172 204.731 267.401 202.134 264.695 198.527C260.787 193.28 258.792 186.939 258.792 179.669C258.792 174.313 259.557 169.393 261.088 165.048C261.826 162.807 262.837 160.675 264.067 158.707C265.269 156.794 266.745 155.127 268.439 153.706C270.134 152.312 272.129 151.192 274.397 150.399C276.666 149.579 279.481 149.169 282.788 149.169C286.04 149.169 289.265 149.88 292.38 151.274C293.829 151.957 295.141 152.804 296.207 153.788C297.218 154.717 297.928 155.838 298.338 157.204C298.776 158.68 298.994 160.538 298.994 162.67C298.994 163.736 298.912 165.157 298.748 166.934L298.639 168.409Z" fill="white"/>
<path d="M369.232 144.933L367.16 148.311C367.16 148.311 342.785 136.518 329.822 158.325C319.817 175.16 326.051 198.226 334.824 208.311L334.113 211.208C339.442 214.624 345.865 216.346 353.299 216.346C364.422 216.346 373.304 212.493 379.672 204.922C385.439 198.09 388.363 189.453 388.363 179.314C388.363 169.257 385.439 160.566 379.699 153.46C376.72 149.77 373.25 146.928 369.232 144.933ZM380.547 186.502C379.125 197.516 372.375 211.618 357.262 211.618C353.217 211.618 350.527 211.347 350.527 211.347C350.527 211.347 349.964 209.623 349.363 208.666C345.728 208.12 342.64 206.781 340.18 204.649C338.623 203.31 337.338 201.67 336.3 199.839C335.261 197.953 334.414 195.876 333.785 193.69C333.157 191.476 332.692 189.125 332.419 186.693C332.145 184.233 332.009 180.981 332.009 177.046C332.009 173.165 332.61 169.065 333.813 164.884C336.764 154.28 343.187 149.115 353.408 149.115C356.278 149.115 358.819 149.524 360.978 150.317C366.144 152.23 369.888 156.166 372.184 162.042C374.097 162.807 377.486 164.392 379.535 166.688C381.203 168.601 381.804 176.417 380.547 186.502Z" fill="white"/>
<path d="M500 51.8174L470.156 0L440.312 51.8174L470.156 70.839L500 51.8174ZM472.342 12.4624L491.254 45.2583L472.342 34.4356V12.4624ZM472.342 39.4643L493.004 51.1615L472.342 64.2799V39.4643ZM467.969 64.2799L447.308 51.1615L467.969 39.4643V64.2799ZM467.969 34.4356L449.166 45.1489L467.969 12.4624V34.4356Z" fill="white"/>
<path d="M440.309 57.9393L470.153 101.558L499.997 57.9393L470.153 76.9609L440.309 57.9393ZM467.967 90.7352L455.941 73.0254L467.857 80.6778L467.967 80.7871V90.7352ZM472.339 80.7871L472.449 80.6778L484.474 73.0254L472.339 90.7352V80.7871Z" fill="white"/>
<path d="M199.177 142.337H173.386L185.403 146.742L199.177 142.337Z" fill="url(#paint0_linear_2_1090)"/>
<path d="M408.183 47.1167C405.452 43.7032 402.121 41.2462 398.218 39.7431L397.453 43.2113C397.453 43.2113 379.207 36.0727 370.361 51.4567C362.763 64.6734 367.426 82.5553 374.255 90.399L373.375 93.9874H373.364C377.436 96.7477 382.274 98.1143 387.822 98.1143C396.376 98.1143 403.236 94.9166 408.21 88.6034C412.692 82.8642 414.988 75.8131 414.988 67.6688C414.988 59.5791 412.692 52.6647 408.183 47.1167ZM407.8 73.408C406.707 81.9896 401.432 92.9762 389.653 92.9762C387.467 92.9762 384.378 92.375 384.378 92.375C384.378 92.375 383.23 90.2979 382.574 89.1774C379.787 87.8655 377.682 85.4878 376.261 82.0169C374.758 78.3821 373.993 73.5993 373.993 67.6688C373.993 63.6513 374.403 60.0711 375.195 57.0374C377.136 49.3031 381.317 45.5589 387.931 45.5589C391.457 45.5589 394.244 46.5701 396.431 48.6745C397.442 49.6584 398.316 50.8609 399 52.2001C399.246 52.692 399.464 53.1839 399.683 53.7305C401.049 54.2225 405.122 55.8349 407.007 57.9667C408.319 59.4698 408.784 65.537 407.8 73.408Z" fill="white"/>
<path d="M135.922 47.1167C133.189 43.7005 129.855 41.2408 125.947 39.7376H125.936L125.171 43.2113C125.171 43.2113 106.925 36.0727 98.0787 51.4567C90.4783 64.6734 95.1435 82.5554 101.973 90.399L101.093 93.9792C101.093 93.9792 101.099 93.9847 101.104 93.9874C105.176 96.7477 110.014 98.1143 115.562 98.1143C124.116 98.1143 130.976 94.9166 135.95 88.6034C140.432 82.8642 142.728 75.8131 142.728 67.6688C142.728 59.5791 140.432 52.6647 135.922 47.1167ZM135.512 73.408C134.419 81.9896 129.145 92.9762 117.365 92.9762C115.179 92.9762 112.091 92.375 112.091 92.375C112.091 92.375 110.943 90.2979 110.314 89.1774C107.527 87.8655 105.422 85.4878 104.001 82.017C102.498 78.3821 101.733 73.5994 101.733 67.6688C101.733 63.6513 102.143 60.0711 102.935 57.0374C104.876 49.3031 109.057 45.5589 115.671 45.5589C119.197 45.5589 121.984 46.5701 124.171 48.6745C125.182 49.6584 126.056 50.8609 126.74 52.2001C126.958 52.6647 127.204 53.1566 127.395 53.6759C128.981 54.2771 132.943 55.9169 134.72 57.9667C136.032 59.4698 136.496 65.537 135.512 73.408Z" fill="white"/>
<path d="M59.8797 8.83028L60.809 4.32086C59.3878 3.63761 57.8573 3.00902 56.2175 2.48975C51.8994 1.0686 47.554 0.358025 43.3178 0.358025C39.191 0.358025 33.3971 0.658653 26.0454 1.20525C22.3285 1.53321 19.3222 1.69719 17.0265 1.69719H0L18.2318 10.0383C18.2318 10.0383 39.8934 -1.0194 59.8797 8.83028Z" fill="url(#paint1_linear_2_1090)"/>
<path d="M66.8762 26.0208C66.8762 21.5387 59.2512 19.0243 57.2834 18.4231C58.5133 21.1287 59.1145 24.4903 59.1145 28.5078C59.1145 35.3129 57.3381 40.8062 53.8399 44.8784C50.7789 48.3219 47.1714 50.0164 42.7439 50.0164H37.3053C61.6289 56.7669 66.8762 35.4113 66.8762 26.0208Z" fill="url(#paint2_linear_2_1090)"/>
<path d="M17.7781 87.431V27.9065C17.7781 23.0691 10.4127 18.3137 10.4127 18.3137V79.3687C10.4127 84.9713 9.56546 86.5564 9.18284 87.021C8.77289 87.513 8.17163 87.8409 7.37907 88.0323C6.34053 88.2782 5.00137 88.5242 3.1976 88.7702L0 89.2348C17.871 94.7007 17.7781 87.431 17.7781 87.431Z" fill="url(#paint3_linear_2_1090)"/>
<path d="M33.8617 56.9855L92.8122 119.899H94.8347L51.812 67.1768L33.8617 56.9855Z" fill="url(#paint4_linear_2_1090)"/>
<path d="M98.0787 51.4567C106.923 36.0727 125.171 43.2113 125.171 43.2113L125.936 39.7404C122.82 38.4832 119.377 37.8819 115.551 37.8819C114.146 37.8819 112.779 37.9721 111.451 38.1525C107.464 38.6964 103.832 40.0547 100.615 42.2247C98.6198 43.5911 96.8161 45.2309 95.3129 47.1167C93.7825 48.9751 92.5253 51.0249 91.5141 53.2386C90.5029 55.425 89.765 57.7754 89.273 60.235C88.7811 62.6674 88.5351 65.1544 88.5351 67.6414C88.5351 75.7037 90.7762 82.7275 95.2036 88.4668C96.95 90.7051 98.915 92.5308 101.096 93.9792L101.976 90.399C95.1462 82.5553 90.4783 64.6734 98.0787 51.4567Z" fill="url(#paint5_linear_2_1090)"/>
<path d="M128.461 56.7915C128.899 58.4313 129.199 60.2077 129.363 62.0388C129.555 63.8972 129.637 66.3843 129.637 69.4452C129.637 72.4242 129.227 75.4851 128.434 78.5461C127.997 80.2405 127.423 81.8256 126.74 83.2741C126.029 84.6953 125.182 85.9251 124.143 86.991C123.159 88.0022 121.929 88.8221 120.563 89.4233C117.775 90.5712 113.512 90.5985 110.724 89.396C110.588 89.3414 110.451 89.2594 110.314 89.1774C110.943 90.2979 112.091 92.375 112.091 92.375C112.091 92.375 115.179 92.9762 117.365 92.9762C129.145 92.9762 134.419 81.9896 135.512 73.408C136.496 65.537 136.032 59.4698 134.72 57.9667C132.943 55.9169 128.981 54.2771 127.395 53.6759C127.505 53.8945 127.587 54.1131 127.669 54.3591C127.969 55.1244 128.243 55.9443 128.461 56.7915Z" fill="url(#paint6_linear_2_1090)"/>
<path d="M161.293 49.9863C161.293 47.0019 164.714 41.5441 177.286 41.5441C186.641 41.5441 190.456 43.9656 190.456 43.9656L191.883 40.2296C188.467 38.6718 184.039 37.8792 178.683 37.8792C172.069 37.8792 166.466 39.109 162.039 41.5414C159.934 42.6893 158.295 44.0831 157.119 45.6409C155.862 47.308 155.234 48.9751 155.234 50.5876V50.6969L161.738 54.2689C161.738 54.2689 161.293 52.5335 161.293 49.9863Z" fill="url(#paint7_linear_2_1090)"/>
<path d="M159.47 81.5004C159.47 75.5152 163.17 71.6781 170.574 67.8683C179.087 63.4873 194.785 63.5611 194.785 63.5611V57.1495C194.43 55.5917 190.899 54.1432 188.767 53.296V60.3198C177.262 60.7297 168.215 63.326 161.902 67.9995C156.245 72.0989 153.375 76.745 153.375 81.7464C153.375 86.3378 155.07 90.1913 158.377 93.1976C158.705 93.4709 159.033 93.7442 159.388 93.9902L165.592 93.1976C162.613 91.6945 159.47 87.4857 159.47 81.5004Z" fill="url(#paint8_linear_2_1090)"/>
<path d="M182.427 93.2714C194.761 93.2714 194.714 87.2943 194.714 87.2943V73.3288L188.767 72.6455V82.7029C188.767 84.452 188.631 85.9005 188.385 86.9664C188.193 87.8409 187.784 88.4969 187.155 88.9615C186.472 89.5081 185.433 89.8907 184.067 90.1093C182.536 90.3553 180.623 90.4919 178.409 90.4919C176.25 90.4919 174.474 90.2733 173.053 89.836C172.533 89.6994 172.042 89.5354 171.604 89.3441L173.87 91.9951C173.87 91.9951 175.756 93.2714 182.427 93.2714Z" fill="url(#paint9_linear_2_1090)"/>
<path d="M225.217 70.0219C225.04 65.2692 225.217 59.7212 227.718 52.6783C230.858 43.8289 239 40.8609 243.536 40.8609C248.101 40.8609 251.735 42.0634 251.735 42.0634L252.938 39.0571C251.435 38.4285 249.822 37.9093 248.073 37.554C244.848 36.8981 240.421 36.7068 235.966 38.2919C233.752 39.0845 231.675 40.1776 229.872 41.5988C228.04 42.9653 226.428 44.6324 225.034 46.5182C223.668 48.4039 222.492 50.481 221.618 52.6674C219.759 57.2042 218.803 62.0415 218.803 67.1249C218.803 75.3512 221.099 82.5389 225.663 88.4969C227.33 90.6559 229.27 92.487 231.457 93.9628L237.114 93.1976C228.398 86.909 225.521 78.0487 225.217 70.0219Z" fill="url(#paint10_linear_2_1090)"/>
<path d="M263.843 87.2943V70.7324C263.843 67.5349 260.344 63.2714 257.721 60.5384V82.1837C257.721 84.7253 257.065 86.5838 255.698 87.8409C253.813 89.4807 250.478 90.328 245.75 90.328C245.094 90.328 244.466 90.2733 243.837 90.164L244.411 91.8038C244.411 91.8038 244.876 93.2796 251.544 93.2796C263.788 93.2796 263.843 87.4037 263.843 87.2943Z" fill="url(#paint11_linear_2_1090)"/>
<path d="M263.843 47.6032V35.0232C263.843 32.7986 260.016 31.0495 257.721 30.3936V41.8174C257.721 41.8174 259.981 43.4381 263.843 47.6032Z" fill="url(#paint12_linear_2_1090)"/>
<path d="M277.762 15.7174H249.836L264.753 22.0033L277.762 15.7174Z" fill="url(#paint13_linear_2_1090)"/>
<path d="M331.921 25.6409V22.0033L338.562 10.6341L328.232 14.9248L328.15 15.7447C328.013 17.4392 327.658 20.1175 327.057 23.7251C326.346 28.0705 325.663 29.6283 325.28 30.1749C324.816 30.4482 323.121 31.1315 317.3 31.9514L316.125 32.1427C332.006 37.625 331.921 25.6409 331.921 25.6409Z" fill="url(#paint14_linear_2_1090)"/>
<path d="M354.023 34.575L357.721 30.3662H342.512L345.928 34.575H354.023Z" fill="url(#paint15_linear_2_1090)"/>
<path d="M331.976 87.1659V51.8202L325.198 46.8461V81.0631C325.198 86.5838 324.515 87.8956 324.296 88.1962C323.996 88.5788 323.558 88.8521 322.93 89.0161C322.001 89.2894 320.771 89.5901 319.213 89.9453L318.147 90.164C318.147 90.164 320.361 91.2654 326.1 91.2654C331.839 91.2654 331.976 87.1659 331.976 87.1659Z" fill="url(#paint16_linear_2_1090)"/>
<path d="M372.883 42.2274C370.888 43.5939 369.084 45.2337 367.581 47.1194C366.051 48.9779 364.794 51.0276 363.782 53.2413C362.771 55.4277 362.033 57.7781 361.541 60.2378C361.049 62.6701 360.804 65.1571 360.804 67.6442C360.804 75.7065 363.045 82.7303 367.472 88.4695C369.221 90.7106 371.189 92.5417 373.375 93.9902L374.255 90.4017C367.426 82.5581 362.763 64.6761 370.361 51.4594C379.207 36.0754 397.453 43.214 397.453 43.214L398.218 39.7458C398.218 39.7458 398.213 39.7431 398.207 39.7404C396.649 39.1118 395.01 38.6472 393.282 38.3411C391.558 38.035 389.743 37.8847 387.833 37.8847C382.203 37.8847 377.174 39.3304 372.883 42.2274Z" fill="url(#paint17_linear_2_1090)"/>
<path d="M400.724 56.7915C401.162 58.4313 401.462 60.2077 401.626 62.0388C401.817 63.8972 401.899 66.3843 401.899 69.4452C401.899 72.4242 401.489 75.4851 400.697 78.5461C400.26 80.2405 399.686 81.8256 399.002 83.2741C398.292 84.6953 397.445 85.9251 396.406 86.991C395.422 88.0022 394.192 88.8221 392.826 89.4233C390.038 90.5712 385.775 90.5985 382.987 89.396C382.85 89.3414 382.714 89.2594 382.577 89.1774C383.233 90.2979 384.381 92.375 384.381 92.375C384.381 92.375 387.469 92.9762 389.656 92.9762C401.435 92.9762 406.709 81.9896 407.803 73.408C408.787 65.537 408.322 59.4698 407.01 57.9667C405.124 55.8349 401.052 54.2225 399.686 53.7305C399.768 53.9218 399.85 54.1405 399.932 54.3591C400.232 55.1244 400.506 55.9443 400.724 56.7915Z" fill="url(#paint18_linear_2_1090)"/>
<path d="M64.504 128.316L66.1711 123.752C59.4753 120.691 51.5223 119.161 42.3941 119.161C40.8363 119.161 37.8573 119.298 33.3206 119.598L29.0025 119.899C27.3627 119.981 25.6409 120.008 23.8371 120.008L0.142125 119.954L0.0601349 119.981L18.3711 128.316C18.3711 128.316 40.891 116.756 64.504 128.316Z" fill="url(#paint19_linear_2_1090)"/>
<path d="M17.7699 205.66V146.136C17.7699 141.599 11.32 137.144 10.5001 136.597V197.707C10.5001 203.282 9.51625 204.813 9.10631 205.25C8.55971 205.769 7.73981 206.179 6.61929 206.425C5.28012 206.699 3.47635 207.027 1.2353 207.327L0.0874481 207.491C17.8792 212.902 17.7699 205.66 17.7699 205.66Z" fill="url(#paint20_linear_2_1090)"/>
<path d="M71.6371 148.951C72.6483 152.804 73.1402 157.477 73.1402 162.889C73.1402 169.831 72.5389 176.226 71.4184 181.856C67.9202 198.773 58.5734 207.027 42.886 207.027H42.7767L45.1544 210.579C83.6622 210.579 80.5739 166.059 80.5739 158.789C80.5739 153.487 74.78 150.29 71.6371 148.951Z" fill="url(#paint21_linear_2_1090)"/>
<path d="M157.229 146.264L162.968 142.337H102.301V142.339L116.029 146.264H157.229Z" fill="url(#paint22_linear_2_1090)"/>
<path d="M115.775 205.223V162.096C115.775 160.074 112.386 158.407 110.227 157.587V201.834C110.227 206.07 109.516 207.109 109.27 207.354C108.915 207.71 108.341 207.956 107.549 208.147C106.565 208.338 105.225 208.502 103.531 208.639L102.329 208.748L102.301 208.994C102.301 208.994 105.909 210.798 110.2 210.798C115.622 210.798 115.775 205.223 115.775 205.223Z" fill="url(#paint23_linear_2_1090)"/>
<path d="M145.075 177.74L149.992 173.957H127.773L131.828 177.74H145.075Z" fill="url(#paint24_linear_2_1090)"/>
<path d="M150.484 211.317C158.707 211.317 159.585 200.577 159.585 200.577L156.524 198.035L156.25 199.675C155.622 202.681 155.731 202.271 154.583 204.485C154.283 205.059 153.299 206.043 152.697 206.371C151.768 206.89 149.664 207.491 144.58 207.491H127.773L131.626 211.317H150.484Z" fill="url(#paint25_linear_2_1090)"/>
<path d="M244.004 142.391H220.421L234.419 146.742L244.004 142.391Z" fill="url(#paint26_linear_2_1090)"/>
<path d="M228.866 162.424C229.795 159.008 225.313 157.587 225.313 157.587L225.04 158.325L224.93 158.625C224.165 160.757 219.765 172.427 211.785 193.334C211.265 194.728 210.719 196.177 210.145 197.652L209.213 210.519L228.866 162.424Z" fill="url(#paint27_linear_2_1090)"/>
<path d="M189.492 161.612C187.579 157.349 182.512 157.559 181.883 157.587L206.726 218.122L209.21 210.519C209.21 210.519 191.47 166.084 189.492 161.612Z" fill="url(#paint28_linear_2_1090)"/>
<path d="M251.826 181.61C251.826 172.506 253.362 165.122 257.644 157.641C262.495 149.164 272.867 144.687 281.285 144.687C293.681 144.687 302.473 150.823 302.473 150.823L312.359 141.326H305.553L305.143 141.872C303.066 144.687 301.727 145.097 301.126 145.097C299.76 145.097 297.792 144.66 295.277 143.785L292.927 142.993C292.052 142.719 291.096 142.446 290.03 142.2C288.992 141.981 287.816 141.763 286.532 141.626C285.247 141.489 283.225 141.407 280.492 141.407C277.704 141.407 274.561 141.927 271.145 142.911C261.252 145.835 253.955 151.984 249.445 161.167C246.685 166.824 245.264 172.973 245.264 179.369C245.264 189.59 248.379 198.281 254.529 205.223C257.016 208.01 259.885 210.279 263.055 212.055L267.893 209.104C257.89 204.567 251.826 191.845 251.826 181.61Z" fill="url(#paint29_linear_2_1090)"/>
<path d="M284.537 211.071C298.092 211.071 304.816 204.376 304.816 204.376L305.526 198.554L304.406 199.647C301.673 202.326 298.639 204.294 295.387 205.523C293.774 206.152 292.025 206.644 290.167 206.945C286.477 207.546 280.738 207.819 275.873 206.234C275.873 206.234 279.617 211.071 284.537 211.071Z" fill="url(#paint30_linear_2_1090)"/>
<path d="M329.822 158.325C342.782 136.518 367.16 148.311 367.16 148.311L369.232 144.933C368.057 144.332 366.827 143.813 365.543 143.375C362.755 142.391 359.776 141.763 356.578 141.544C356.086 141.489 355.622 141.462 355.157 141.462C354.829 141.435 354.501 141.435 354.173 141.435C353.873 141.407 353.572 141.408 353.299 141.408C345.838 141.408 339.251 143.348 333.785 147.119C331.216 148.896 328.92 151.028 326.98 153.433C325.04 155.838 323.4 158.461 322.115 161.249C320.858 164.064 319.874 167.043 319.246 170.077C318.617 173.137 318.316 176.226 318.316 179.314C318.316 189.344 321.213 197.926 326.925 204.813C329.057 207.382 331.435 209.486 334.113 211.208L334.824 208.311C326.051 198.226 319.817 175.16 329.822 158.325Z" fill="url(#paint31_linear_2_1090)"/>
<path d="M372.184 162.042C373.933 166.606 374.835 172.372 374.835 179.314C374.835 184.862 374.233 189.699 373.031 193.717C370.025 203.966 363.602 208.967 353.408 208.967C351.987 208.967 350.648 208.858 349.363 208.666C349.964 209.623 350.527 211.347 350.527 211.347C350.527 211.347 353.217 211.618 357.262 211.618C372.375 211.618 379.125 197.516 380.547 186.502C381.804 176.417 381.203 168.601 379.535 166.688C377.486 164.392 374.097 162.807 372.184 162.042Z" fill="url(#paint32_linear_2_1090)"/>
<path d="M410.09 141.134L411.703 124.302L403.43 126.923L407.445 216.387L410.09 210.579V141.134Z" fill="url(#paint33_linear_2_1090)"/>
<path d="M425.512 153.105L424.693 161.768L469.213 217.767L469.984 208.849L425.512 153.105Z" fill="url(#paint34_linear_2_1090)"/>
<path d="M469.984 208.849V123.946L473.332 119.899H467.054L464.072 189.918L464.067 189.91V189.918L469.984 208.849Z" fill="url(#paint35_linear_2_1090)"/>
<path d="M29.0027 289.431L31.3476 284.227C33.8647 286.061 37.6171 287.343 41.2001 287.343C45.2968 287.343 46.9585 285.976 46.9585 284.143C46.9585 278.554 29.5931 282.394 29.5931 271.3C29.5931 266.225 33.6898 262 42.1785 262C45.9309 262 49.7707 262.896 52.5447 264.646L50.413 269.893C47.639 268.316 44.7803 267.548 42.1375 267.548C38.0407 267.548 36.4638 269.084 36.4638 270.961C36.4638 276.466 53.8265 272.667 53.8265 283.632C53.8265 288.625 49.6887 292.891 41.1563 292.891C36.4228 292.891 31.6455 291.483 29 289.434L29.0027 289.431Z" fill="white"/>
<path d="M59.8882 277.444C59.8882 268.57 66.7999 262 76.2288 262C85.6576 262 92.5693 268.526 92.5693 277.444C92.5693 286.362 85.6166 292.888 76.2288 292.888C66.8409 292.888 59.8882 286.318 59.8882 277.444ZM85.5701 277.444C85.5701 271.77 81.5581 267.887 76.226 267.887C70.894 267.887 66.8847 271.768 66.8847 277.444C66.8847 283.121 70.894 287.001 76.226 287.001C81.5581 287.001 85.5701 283.121 85.5701 277.444Z" fill="white"/>
<path d="M100.722 279.237V262.514H107.631V278.98C107.631 284.654 110.104 287.001 114.288 287.001C118.511 287.001 120.943 284.656 120.943 278.98V262.514H127.77V279.237C127.77 288.023 122.736 292.888 114.247 292.888C105.759 292.888 100.722 288.023 100.722 279.237Z" fill="white"/>
<path d="M143.468 268.144H133.914V262.511H159.935V268.144H150.38V292.374H143.468V268.144Z" fill="white"/>
<path d="M194.239 262.514V292.377H187.327V280.133H173.761V292.377H166.852V262.514H173.761V274.287H187.327V262.514H194.239Z" fill="white"/>
<path d="M227.644 286.829V292.374H204.523V262.511H227.09V268.056H211.391V274.542H225.256V279.917H211.391V286.829H227.644Z" fill="white"/>
<path d="M256.016 285.976H242.154L239.508 292.374H232.424L245.734 262.511H252.561L265.914 292.374H258.664L256.016 285.976ZM253.84 280.729L249.107 269.294L244.373 280.729H253.84Z" fill="white"/>
<path d="M269.883 289.431L272.228 284.227C274.745 286.061 278.497 287.343 282.08 287.343C286.177 287.343 287.838 285.976 287.838 284.143C287.838 278.554 270.473 282.394 270.473 271.3C270.473 266.225 274.57 262 283.058 262C286.811 262 290.651 262.896 293.425 264.646L291.293 269.893C288.519 268.316 285.66 267.548 283.017 267.548C278.921 267.548 277.344 269.084 277.344 270.961C277.344 276.466 294.706 272.667 294.706 283.632C294.706 288.625 290.569 292.891 282.036 292.891C277.303 292.891 272.526 291.483 269.88 289.434L269.883 289.431Z" fill="white"/>
<path d="M308.407 268.144H298.852V262.511H324.873V268.144H315.319V292.374H308.407V268.144Z" fill="white"/>
<path d="M366.729 285.976H352.867L350.222 292.374H343.138L356.447 262.511H363.274L376.628 292.374H369.377L366.729 285.976ZM364.553 280.729L359.82 269.294L355.086 280.729H364.553Z" fill="white"/>
<path d="M380.596 289.431L382.941 284.227C385.458 286.061 389.21 287.343 392.793 287.343C396.89 287.343 398.552 285.976 398.552 284.143C398.552 278.554 381.186 282.394 381.186 271.3C381.186 266.225 385.283 262 393.772 262C397.524 262 401.364 262.896 404.138 264.646L402.006 269.893C399.232 268.316 396.374 267.548 393.731 267.548C389.634 267.548 388.057 269.084 388.057 270.961C388.057 276.466 405.42 272.667 405.42 283.632C405.42 288.625 401.282 292.891 392.75 292.891C388.016 292.891 383.239 291.483 380.593 289.434L380.596 289.431Z" fill="white"/>
<path d="M413.362 262.514H420.271V292.377H413.362V262.514Z" fill="white"/>
<path d="M450.222 285.976H436.357L433.712 292.374H426.628L439.937 262.511H446.764L460.118 292.374H452.867L450.222 285.976ZM448.043 280.729L443.31 269.294L438.576 280.729H448.043Z" fill="white"/>
<defs>
<linearGradient id="paint0_linear_2_1090" x1="199.177" y1="144.54" x2="173.386" y2="144.54" gradientUnits="userSpaceOnUse">
<stop stop-color="#82D2E1"/>
<stop offset="1" stop-color="#738BC1"/>
</linearGradient>
<linearGradient id="paint1_linear_2_1090" x1="60.809" y1="5.19814" x2="0" y2="5.19814" gradientUnits="userSpaceOnUse">
<stop stop-color="#DE7BB1"/>
<stop offset="1" stop-color="#F4AB7C"/>
</linearGradient>
<linearGradient id="paint2_linear_2_1090" x1="52.0907" y1="51.3118" x2="52.0907" y2="18.4231" gradientUnits="userSpaceOnUse">
<stop stop-color="#9B7DB9"/>
<stop offset="1" stop-color="#DE7BB1"/>
</linearGradient>
<linearGradient id="paint3_linear_2_1090" x1="8.88768" y1="18.3137" x2="8.88768" y2="91.2708" gradientUnits="userSpaceOnUse">
<stop stop-color="#F4AB7C"/>
<stop offset="1" stop-color="#E5E57B"/>
</linearGradient>
<linearGradient id="paint4_linear_2_1090" x1="96.7532" y1="117.98" x2="34.8101" y2="56.0372" gradientUnits="userSpaceOnUse">
<stop stop-color="#738BC1"/>
<stop offset="1" stop-color="#9B7DB9"/>
</linearGradient>
<linearGradient id="paint5_linear_2_1090" x1="87.5485" y1="81.1041" x2="127.423" y2="41.2271" gradientUnits="userSpaceOnUse">
<stop stop-color="#82D2E1"/>
<stop offset="1" stop-color="#738BC1"/>
</linearGradient>
<linearGradient id="paint6_linear_2_1090" x1="137.931" y1="61.1533" x2="109.401" y2="89.683" gradientUnits="userSpaceOnUse">
<stop stop-color="#8ACA83"/>
<stop offset="1" stop-color="#82D2E1"/>
</linearGradient>
<linearGradient id="paint7_linear_2_1090" x1="191.883" y1="46.0754" x2="155.234" y2="46.0754" gradientUnits="userSpaceOnUse">
<stop stop-color="#E5E57B"/>
<stop offset="1" stop-color="#8ACA83"/>
</linearGradient>
<linearGradient id="paint8_linear_2_1090" x1="153.375" y1="73.6431" x2="194.785" y2="73.6431" gradientUnits="userSpaceOnUse">
<stop stop-color="#F4AB7C"/>
<stop offset="1" stop-color="#E5E57B"/>
</linearGradient>
<linearGradient id="paint9_linear_2_1090" x1="196.8" y1="75.414" x2="177.043" y2="95.1708" gradientUnits="userSpaceOnUse">
<stop stop-color="#DE7BB1"/>
<stop offset="1" stop-color="#F4AB7C"/>
</linearGradient>
<linearGradient id="paint10_linear_2_1090" x1="218.797" y1="81.9322" x2="257.305" y2="43.4244" gradientUnits="userSpaceOnUse">
<stop stop-color="#9B7DB9"/>
<stop offset="1" stop-color="#DE7BB1"/>
</linearGradient>
<linearGradient id="paint11_linear_2_1090" x1="266.31" y1="69.1282" x2="243.996" y2="91.443" gradientUnits="userSpaceOnUse">
<stop stop-color="#738BC1"/>
<stop offset="1" stop-color="#9B7DB9"/>
</linearGradient>
<linearGradient id="paint12_linear_2_1090" x1="260.782" y1="30.3936" x2="260.782" y2="47.6032" gradientUnits="userSpaceOnUse">
<stop stop-color="#82D2E1"/>
<stop offset="1" stop-color="#738BC1"/>
</linearGradient>
<linearGradient id="paint13_linear_2_1090" x1="277.762" y1="18.8603" x2="249.803" y2="18.8603" gradientUnits="userSpaceOnUse">
<stop stop-color="#8ACA83"/>
<stop offset="1" stop-color="#82D2E1"/>
</linearGradient>
<linearGradient id="paint14_linear_2_1090" x1="338.562" y1="22.1071" x2="316.125" y2="22.1071" gradientUnits="userSpaceOnUse">
<stop stop-color="#E5E57B"/>
<stop offset="1" stop-color="#8ACA83"/>
</linearGradient>
<linearGradient id="paint15_linear_2_1090" x1="357.721" y1="32.4706" x2="342.512" y2="32.4706" gradientUnits="userSpaceOnUse">
<stop stop-color="#F4AB7C"/>
<stop offset="1" stop-color="#E5E57B"/>
</linearGradient>
<linearGradient id="paint16_linear_2_1090" x1="325.062" y1="91.2654" x2="325.062" y2="46.8461" gradientUnits="userSpaceOnUse">
<stop stop-color="#DE7BB1"/>
<stop offset="1" stop-color="#F4AB7C"/>
</linearGradient>
<linearGradient id="paint17_linear_2_1090" x1="359.822" y1="81.1096" x2="399.705" y2="41.2271" gradientUnits="userSpaceOnUse">
<stop stop-color="#9B7DB9"/>
<stop offset="1" stop-color="#DE7BB1"/>
</linearGradient>
<linearGradient id="paint18_linear_2_1090" x1="410.23" y1="61.1697" x2="381.703" y2="89.6966" gradientUnits="userSpaceOnUse">
<stop stop-color="#738BC1"/>
<stop offset="1" stop-color="#9B7DB9"/>
</linearGradient>
<linearGradient id="paint19_linear_2_1090" x1="66.1711" y1="123.739" x2="0.0601349" y2="123.739" gradientUnits="userSpaceOnUse">
<stop stop-color="#8ACA83"/>
<stop offset="1" stop-color="#82D2E1"/>
</linearGradient>
<linearGradient id="paint20_linear_2_1090" x1="8.92866" y1="136.597" x2="8.92866" y2="209.497" gradientUnits="userSpaceOnUse">
<stop stop-color="#82D2E1"/>
<stop offset="1" stop-color="#738BC1"/>
</linearGradient>
<linearGradient id="paint21_linear_2_1090" x1="40.0847" y1="205.51" x2="85.2637" y2="160.328" gradientUnits="userSpaceOnUse">
<stop stop-color="#E5E57B"/>
<stop offset="1" stop-color="#8ACA83"/>
</linearGradient>
<linearGradient id="paint22_linear_2_1090" x1="162.968" y1="144.299" x2="102.301" y2="144.299" gradientUnits="userSpaceOnUse">
<stop stop-color="#F4AB7C"/>
<stop offset="1" stop-color="#E5E57B"/>
</linearGradient>
<linearGradient id="paint23_linear_2_1090" x1="109.038" y1="210.798" x2="109.038" y2="157.587" gradientUnits="userSpaceOnUse">
<stop stop-color="#DE7BB1"/>
<stop offset="1" stop-color="#F4AB7C"/>
</linearGradient>
<linearGradient id="paint24_linear_2_1090" x1="149.992" y1="175.849" x2="127.773" y2="175.849" gradientUnits="userSpaceOnUse">
<stop stop-color="#9B7DB9"/>
<stop offset="1" stop-color="#DE7BB1"/>
</linearGradient>
<linearGradient id="paint25_linear_2_1090" x1="159.585" y1="204.676" x2="127.773" y2="204.676" gradientUnits="userSpaceOnUse">
<stop stop-color="#738BC1"/>
<stop offset="1" stop-color="#9B7DB9"/>
</linearGradient>
<linearGradient id="paint26_linear_2_1090" x1="244.004" y1="144.567" x2="220.366" y2="144.567" gradientUnits="userSpaceOnUse">
<stop stop-color="#F4AB7C"/>
<stop offset="1" stop-color="#E5E57B"/>
</linearGradient>
<linearGradient id="paint27_linear_2_1090" x1="235.042" y1="166.269" x2="200.003" y2="201.309" gradientUnits="userSpaceOnUse">
<stop stop-color="#E5E57B"/>
<stop offset="1" stop-color="#8ACA83"/>
</linearGradient>
<linearGradient id="paint28_linear_2_1090" x1="216.696" y1="208.153" x2="174.007" y2="165.463" gradientUnits="userSpaceOnUse">
<stop stop-color="#8ACA83"/>
<stop offset="1" stop-color="#82D2E1"/>
</linearGradient>
<linearGradient id="paint29_linear_2_1090" x1="245.813" y1="196.584" x2="306.715" y2="135.682" gradientUnits="userSpaceOnUse">
<stop stop-color="#DE7BB1"/>
<stop offset="1" stop-color="#F4AB7C"/>
</linearGradient>
<linearGradient id="paint30_linear_2_1090" x1="305.526" y1="204.813" x2="275.873" y2="204.813" gradientUnits="userSpaceOnUse">
<stop stop-color="#9B7DB9"/>
<stop offset="1" stop-color="#DE7BB1"/>
</linearGradient>
<linearGradient id="paint31_linear_2_1090" x1="317.324" y1="195.414" x2="368.519" y2="144.22" gradientUnits="userSpaceOnUse">
<stop stop-color="#738BC1"/>
<stop offset="1" stop-color="#9B7DB9"/>
</linearGradient>
<linearGradient id="paint32_linear_2_1090" x1="384.373" y1="171.503" x2="347.529" y2="208.349" gradientUnits="userSpaceOnUse">
<stop stop-color="#82D2E1"/>
<stop offset="1" stop-color="#738BC1"/>
</linearGradient>
<linearGradient id="paint33_linear_2_1090" x1="407.565" y1="124.302" x2="407.565" y2="216.387" gradientUnits="userSpaceOnUse">
<stop stop-color="#8ACA83"/>
<stop offset="1" stop-color="#82D2E1"/>
</linearGradient>
<linearGradient id="paint34_linear_2_1090" x1="474.452" y1="212.525" x2="420.271" y2="158.344" gradientUnits="userSpaceOnUse">
<stop stop-color="#E5E57B"/>
<stop offset="1" stop-color="#8ACA83"/>
</linearGradient>
<linearGradient id="paint35_linear_2_1090" x1="468.699" y1="119.899" x2="468.699" y2="208.849" gradientUnits="userSpaceOnUse">
<stop stop-color="#F4AB7C"/>
<stop offset="1" stop-color="#E5E57B"/>
</linearGradient>
</defs>
</svg>
